# xmcd
#
# Track frame offsets:
# 150
# 12521
# 24989
# 34802
# 48727
# 61950
# 72189
# 83283
# 96534
# 106175
# 118401
# 130843
# 141691
# 155019
# 166760
# 184865
# 201689
# 212314
# 223912
# 235773
# 248503
# 264362
# 276998
# 289205
#
# Disc length: 3992 seconds
#
#
# Revision: 0
# Processed by: cddbd v1.5.2PL0 Copyright (c) Steve Scherf et al.
# Submitted via: FreeRIP 2.931 
#
DISCID=6d0f9618
DTITLE=Howlin Wolf - The Best Of Howlin Smokestack Lightnin [CD02)
DYEAR=2011
DGENRE=Blues
TTITLE0=Mr. Airplane Man
TTITLE1=Little Baby
TTITLE2=Down In The Bottom
TTITLE3=You Can't Beat Me
TTITLE4=Tell Me
TTITLE5=Shake For Me
TTITLE6=You'll Be Mine
TTITLE7=Just Like I Treat You
TTITLE8=Mama's Baby
TTITLE9=I Better Go Now
TTITLE10=Nature
TTITLE11=I Didn't Know
TTITLE12=I'm Leavin You
TTITLE13=Built For Comfort
TTITLE14=The Back Door Wolf
TTITLE15=Coon On The Moon
TTITLE16=Hidden Charms
TTITLE17=My Country Sugar Mama
TTITLE18=Ooh Baby (Hold Me)
TTITLE19=Love Me Darlin'
TTITLE20=Change My Way
TTITLE21=Tell Me What I've Done
TTITLE22=Louise
TTITLE23=I've Been Abused
EXTD=
EXTT0=
EXTT1=
EXTT2=
EXTT3=
EXTT4=
EXTT5=
EXTT6=
EXTT7=
EXTT8=
EXTT9=
EXTT10=
EXTT11=
EXTT12=
EXTT13=
EXTT14=
EXTT15=
EXTT16=
EXTT17=
EXTT18=
EXTT19=
EXTT20=
EXTT21=
EXTT22=
EXTT23=
PLAYORDER=
